<svg width="70" height="70" viewBox="0 0 70 70" fill="none" xmlns="http://www.w3.org/2000/svg">
<g clip-path="url(#clip0_3636_117)">
<mask id="mask0_3636_117" style="mask-type:alpha" maskUnits="userSpaceOnUse" x="0" y="0" width="70" height="70">
<path d="M4 0H65C69 0 70 1 70 5V65C70 69 69 70 65 70H4C1 70 0 69 0 65V5C0 1 1 0 4 0Z" fill="white"/>
</mask>
<g mask="url(#mask0_3636_117)">
<path fill-rule="evenodd" clip-rule="evenodd" d="M0 0H70V70H0V0Z" fill="#24485C"/>
<path fill-rule="evenodd" clip-rule="evenodd" d="M4 1H65C67.667 1 69.333 1.667 70 3V0H0V3C0.667 1.667 2 1 4 1Z" fill="white" fill-opacity="0.383"/>
<path opacity="0.3" fill-rule="evenodd" clip-rule="evenodd" d="M4 69C2 69 0 68.854 0 64.926L0 43.7685L11.2208 28.5479L17.0001 26.5286L19.9894 29.6496L24.9894 22.6496L30.5001 18.2802V21.5L36.0001 14.5H41.2501L43.0255 13.5L46.5001 14.5L59.2994 24.9681L54.172 30.9129V38.3439H58.7049V40.7218L39.2357 69H4Z" fill="black"/>
<path fill-rule="evenodd" clip-rule="evenodd" d="M4 69H65C67.667 69 69.333 68 70 66V70H0V66C0.667 68 2 69 4 69Z" fill="black" fill-opacity="0.383"/>
</g>
<path opacity="0.3" fill-rule="evenodd" clip-rule="evenodd" d="M21.9825 59.995L10.8105 48.1451C10.7509 48.0821 10.7043 48.008 10.6734 47.927C10.6425 47.846 10.6279 47.7597 10.6304 47.6731C10.6328 47.5865 10.6523 47.5011 10.6878 47.422C10.7233 47.343 10.774 47.2716 10.837 47.2121L16.2042 42.1568C16.2673 42.0974 16.3416 42.051 16.4226 42.0202C16.5037 41.9895 16.5901 41.975 16.6768 41.9776C16.7635 41.9802 16.8488 41.9999 16.9279 42.0355C17.0069 42.0711 17.0782 42.1219 17.1376 42.185L18.2166 43.3298C20.8758 40.5646 23.0708 38.655 25.1718 37.5456C26.3785 36.8797 27.7147 36.4817 29.0892 36.3787V34.9817H28.6344C28.5078 34.982 28.3839 34.9457 28.2775 34.8772L27.5471 34.4033L27.0669 34.8623C26.9659 34.9669 26.8334 35.0356 26.6897 35.0577C26.5459 35.0797 26.3989 35.054 26.2712 34.9845L25.4794 34.5498L25.1684 34.7959C25.0454 34.9139 24.8814 34.9797 24.7109 34.9795H20.0857C19.4214 35.9462 18.4553 36.6656 17.3384 37.0252C16.2216 37.3848 15.0171 37.3644 13.9131 36.9671C12.8091 36.5698 11.868 35.8181 11.2368 34.8295C10.6057 33.8409 10.3201 32.6711 10.4247 31.503C10.5293 30.3349 11.0183 29.2344 11.8151 28.3736C12.612 27.5127 13.6717 26.9401 14.8287 26.7451C15.9858 26.5502 17.1748 26.7439 18.2099 27.2961C19.2451 27.8483 20.068 28.7278 20.5499 29.797H29.0914V25.2262L27.6761 26.3079C27.4439 26.4853 27.179 26.6153 26.8966 26.6903C26.6141 26.7654 26.3197 26.7841 26.03 26.7455C25.7403 26.7068 25.4611 26.6115 25.2083 26.465C24.9554 26.3184 24.734 26.1236 24.5565 25.8915C24.198 25.4228 24.0406 24.831 24.1187 24.2462C24.1969 23.6615 24.5042 23.1317 24.9731 22.7735L40.4549 10.9385C40.8747 10.6182 41.3948 10.4576 41.9223 10.4856C42.4497 10.4574 42.9699 10.618 43.3896 10.9385L58.8714 22.7735C59.3403 23.1317 59.6477 23.6615 59.7258 24.2462C59.8039 24.831 59.6465 25.4228 59.288 25.8915C58.9296 26.3602 58.3996 26.6674 57.8145 26.7455C57.2295 26.8236 56.6374 26.6662 56.1684 26.3079L54.7531 25.2262V38.5212H54.758L54.7835 38.509C56.1629 37.883 57.4045 37.8868 58.214 38.3011C58.6185 38.4993 58.9418 38.8315 59.1287 39.2412C59.3129 39.6683 59.3465 40.1453 59.2238 40.5939C58.9605 41.6569 57.8859 42.9687 55.6483 44.203C53.0821 45.7707 50.436 47.2041 47.721 48.4974C45.5859 49.4744 44.0106 49.9517 42.9951 49.9292C40.6946 49.9777 38.3935 49.8681 36.108 49.6012C32.1629 49.2019 30.1759 49.0017 27.3009 52.9687L28.3118 54.036C28.3713 54.0991 28.4177 54.1733 28.4485 54.2543C28.4793 54.3354 28.4938 54.4217 28.4911 54.5083C28.4885 54.595 28.4688 54.6803 28.4332 54.7593C28.3976 54.8383 28.3468 54.9096 28.2836 54.969L22.9165 60.0243C22.8533 60.0837 22.7791 60.1301 22.698 60.1609C22.6169 60.1916 22.5306 60.2061 22.4439 60.2035C22.3572 60.2009 22.2719 60.1812 22.1928 60.1456C22.1137 60.11 22.0424 60.0592 21.983 59.9961L21.9825 59.995ZM15.7106 27.9952C15.0125 27.9963 14.3268 28.1807 13.7224 28.53C13.118 28.8793 12.6161 29.3812 12.2669 29.9855C11.9177 30.5897 11.7335 31.2751 11.7327 31.9729C11.732 32.6707 11.9148 33.3565 12.2627 33.9615C12.6106 34.5664 13.1115 35.0694 13.7152 35.42C14.3189 35.7706 15.0041 35.9564 15.7023 35.9589C16.4004 35.9614 17.087 35.7805 17.6932 35.4343C18.2993 35.0881 18.8038 34.5887 19.1561 33.9863C19.2144 33.8872 19.2975 33.805 19.3973 33.7479C19.497 33.6908 19.61 33.6607 19.7249 33.6605H24.4834L25.0047 33.248C25.1063 33.1677 25.2294 33.1191 25.3585 33.1083C25.4876 33.0975 25.617 33.1249 25.7306 33.1871L26.4815 33.5991L27.0099 33.0942C27.117 32.9923 27.2552 32.9293 27.4023 32.9153C27.5495 32.9012 27.6972 32.937 27.8216 33.0168L28.8253 33.6616H30.384L31.6522 32.3941L30.384 31.126H20.1045C19.957 31.1257 19.8137 31.0763 19.6974 30.9855C19.581 30.8948 19.4983 30.7679 19.4621 30.6249C19.1831 29.8546 18.6731 29.189 18.0017 28.719C17.3304 28.249 16.5303 27.9974 15.7106 27.9986V27.9952ZM23.2103 54.0952C23.1536 54.0087 23.0805 53.9342 22.995 53.8759C22.9096 53.8177 22.8135 53.7768 22.7123 53.7557C22.611 53.7346 22.5066 53.7336 22.405 53.7528C22.3034 53.772 22.2065 53.811 22.12 53.8676C22.0334 53.9242 21.9589 53.9973 21.9006 54.0827C21.8423 54.1681 21.8014 54.2642 21.7803 54.3654C21.7592 54.4665 21.7582 54.5709 21.7774 54.6725C21.7966 54.7741 21.8356 54.8709 21.8923 54.9574L21.9127 54.9883C22.0295 55.1574 22.2077 55.2743 22.4095 55.3138C22.6112 55.3534 22.8204 55.3127 22.9924 55.2002C23.1645 55.0878 23.2858 54.9126 23.3304 54.712C23.375 54.5115 23.3395 54.3014 23.2313 54.1267L23.2103 54.0952ZM30.4155 36.3942C30.9852 36.4431 31.5501 36.5372 32.1048 36.6757C34.1216 36.6385 36.1257 36.3472 38.0695 35.8085V31.251C38.0695 31.0749 38.1395 30.9061 38.264 30.7817C38.3885 30.6572 38.5574 30.5873 38.7335 30.5873H45.1132C45.2893 30.5873 45.4582 30.6572 45.5827 30.7817C45.7072 30.9061 45.7772 31.0749 45.7772 31.251V33.7396C45.9036 33.7817 46.0267 33.8329 46.1457 33.8928C46.5798 34.1107 46.9455 34.444 47.2026 34.8559C47.4597 35.2679 47.5983 35.7427 47.6031 36.2283C47.6225 37.2154 47.1395 38.3851 45.863 39.5349C45.8356 39.5594 45.8061 39.5816 45.775 39.6012V41.7127C46.0797 41.733 46.3194 41.745 46.4943 41.7487C48.4678 41.308 50.3769 40.6172 52.1752 39.693C52.5625 39.5078 52.9714 39.3142 53.429 39.1046V24.2141L41.92 15.4209L30.4111 24.2141V29.7998H30.6568C30.7437 29.7997 30.8299 29.8168 30.9102 29.8502C30.9905 29.8835 31.0635 29.9323 31.1249 29.9939L33.0554 31.9234C33.1791 32.0478 33.2485 32.216 33.2485 32.3913C33.2485 32.5666 33.1791 32.7348 33.0554 32.8592L31.1304 34.7832C31.0687 34.8462 30.995 34.8962 30.9136 34.9304C30.8323 34.9646 30.745 34.9822 30.6568 34.9823H30.4111V36.3942H30.4155ZM19.1235 44.2888L26.3852 51.9898C29.6143 47.6158 31.8525 47.842 36.2419 48.2844C38.4777 48.5468 40.729 48.6547 42.9796 48.6074C42.9918 48.6074 43.004 48.6074 43.0156 48.6074C43.8271 48.6306 45.2143 48.1932 47.1771 47.2951C49.8534 46.0173 52.4617 44.6018 54.9915 43.0544L55.0126 43.0422C56.885 42.0092 57.7565 41.0231 57.9413 40.277C57.9912 40.1139 57.9851 39.9387 57.9241 39.7793C57.8578 39.6479 57.7487 39.5429 57.6148 39.4818C57.1307 39.2351 56.3123 39.2678 55.3257 39.7157C55.3077 39.7239 55.2892 39.7311 55.2704 39.7373C54.3215 40.1399 53.4998 40.5314 52.7423 40.8915C50.8341 41.8711 48.8068 42.5991 46.7112 43.0572C46.6521 43.0707 46.5914 43.0759 46.5308 43.0726C46.2324 43.0693 45.76 43.0419 45.1138 42.9902H45.1099C45.0728 42.9904 45.0358 42.9874 44.9992 42.9814C44.575 42.9467 44.08 42.9021 43.5141 42.8476C42.2308 42.7237 40.6249 42.5548 38.6964 42.341C38.6688 42.3395 38.6412 42.3364 38.614 42.3316L37.3602 42.1911C37.2736 42.1824 37.1897 42.1568 37.113 42.1157C37.0364 42.0746 36.9686 42.0188 36.9136 41.9515C36.8024 41.8155 36.7498 41.641 36.7673 41.4663C36.7848 41.2917 36.8711 41.1311 37.0071 41.02C37.1431 40.9088 37.3176 40.8562 37.4924 40.8738C37.8671 40.8916 38.2426 40.8805 38.6156 40.8406C38.6451 40.8355 38.6749 40.8324 38.7047 40.8312C39.4713 40.7377 40.2273 40.5724 40.9628 40.3373C42.281 39.9168 43.5511 39.3583 44.7519 38.671C44.7738 38.6566 44.7965 38.6434 44.82 38.6318C44.8891 38.5925 44.9572 38.5527 45.0252 38.5129C45.946 37.6678 46.2979 36.8831 46.284 36.2565C46.2813 36.0015 46.2071 35.7525 46.0699 35.5375C45.941 35.3384 45.761 35.1774 45.5487 35.0713C45.3991 34.9961 45.2375 34.9476 45.0712 34.9281C45.0535 34.9281 45.0358 34.9248 45.0158 34.9226C44.7173 34.9001 44.4182 34.959 44.1505 35.0929C44.1283 35.1034 44.1062 35.1128 44.0835 35.1211C43.5573 35.3091 43.1218 35.4734 42.6725 35.6426C41.5327 36.0723 40.311 36.533 38.951 36.9317C38.927 36.9407 38.9024 36.9479 38.8774 36.9533C36.6533 37.6116 34.3494 37.9622 32.0301 37.9952C31.9742 37.996 31.9184 37.9895 31.8641 37.9759C29.8209 37.4105 27.6369 37.6769 25.7898 38.7169C23.8095 39.7622 21.7025 41.6049 19.1235 44.2915V44.2888ZM14.8513 32.4571L14.8685 32.4306C14.9327 32.3372 14.9777 32.232 15.0006 32.121C15.0236 32.0101 15.0241 31.8957 15.0022 31.7845C14.9803 31.6734 14.9364 31.5677 14.873 31.4737C14.8097 31.3798 14.7282 31.2995 14.6333 31.2374C14.5384 31.1754 14.4321 31.133 14.3206 31.1127C14.2091 31.0923 14.0946 31.0944 13.9839 31.1189C13.8733 31.1434 13.7686 31.1898 13.6761 31.2553C13.5836 31.3208 13.5052 31.4041 13.4454 31.5004L13.4282 31.5264C13.3084 31.715 13.2677 31.9431 13.315 32.1615C13.3622 32.3799 13.4935 32.5709 13.6806 32.6932C13.8676 32.8155 14.0953 32.8593 14.3144 32.8152C14.5335 32.771 14.7264 32.6424 14.8513 32.4571Z" fill="black"/>
<path fill-rule="evenodd" clip-rule="evenodd" d="M21.9825 59.1727L10.8105 47.3228C10.7509 47.2598 10.7043 47.1857 10.6734 47.1047C10.6425 47.0237 10.6279 46.9375 10.6304 46.8508C10.6328 46.7642 10.6523 46.6789 10.6878 46.5998C10.7233 46.5207 10.774 46.4493 10.837 46.3898L16.2042 41.3345C16.2673 41.2751 16.3416 41.2287 16.4226 41.1979C16.5037 41.1672 16.5901 41.1527 16.6768 41.1553C16.7635 41.1579 16.8488 41.1776 16.9279 41.2132C17.0069 41.2488 17.0782 41.2996 17.1376 41.3628L18.2166 42.5075C20.8758 39.7424 23.0708 37.8327 25.1718 36.7233C26.3785 36.0574 27.7147 35.6594 29.0892 35.5564V34.1595H28.6344C28.5078 34.1598 28.3839 34.1235 28.2775 34.0549L27.5471 33.581L27.0669 34.04C26.9659 34.1447 26.8334 34.2133 26.6897 34.2354C26.5459 34.2575 26.3989 34.2318 26.2712 34.1622L25.4794 33.7275L25.1684 33.9736C25.0454 34.0916 24.8814 34.1574 24.7109 34.1573H20.0857C19.4214 35.1239 18.4553 35.8433 17.3384 36.2029C16.2216 36.5625 15.0171 36.5421 13.9131 36.1448C12.8091 35.7476 11.868 34.9959 11.2368 34.0072C10.6057 33.0186 10.3201 31.8488 10.4247 30.6807C10.5293 29.5126 11.0183 28.4121 11.8151 27.5513C12.612 26.6904 13.6717 26.1178 14.8287 25.9228C15.9858 25.7279 17.1748 25.9217 18.2099 26.4739C19.2451 27.026 20.068 27.9055 20.5499 28.9748H29.0914V24.4039L27.6761 25.4857C27.4439 25.663 27.179 25.793 26.8966 25.8681C26.6141 25.9431 26.3197 25.9619 26.03 25.9232C25.7403 25.8845 25.4611 25.7892 25.2083 25.6427C24.9554 25.4962 24.734 25.3013 24.5565 25.0692C24.198 24.6005 24.0406 24.0087 24.1187 23.424C24.1969 22.8392 24.5042 22.3095 24.9731 21.9512L40.4549 10.1163C40.8747 9.7959 41.3948 9.63534 41.9223 9.66332C42.4497 9.63514 42.9699 9.79572 43.3896 10.1163L58.8714 21.9512C59.3403 22.3095 59.6477 22.8392 59.7258 23.424C59.8039 24.0087 59.6465 24.6005 59.288 25.0692C58.9296 25.5379 58.3996 25.8451 57.8145 25.9232C57.2295 26.0013 56.6374 25.8439 56.1684 25.4857L54.7531 24.4039V37.6989H54.758L54.7835 37.6867C56.1629 37.0607 57.4045 37.0646 58.214 37.4788C58.6185 37.677 58.9418 38.0093 59.1287 38.4189C59.3129 38.846 59.3465 39.323 59.2238 39.7717C58.9605 40.8346 57.8859 42.1464 55.6483 43.3808C53.0821 44.9484 50.436 46.3818 47.721 47.6751C45.5859 48.6521 44.0106 49.1294 42.9951 49.1069C40.6946 49.1554 38.3935 49.0458 36.108 48.779C32.1629 48.3797 30.1759 48.1795 27.3009 52.1464L28.3118 53.2137C28.3713 53.2768 28.4177 53.351 28.4485 53.4321C28.4793 53.5131 28.4938 53.5994 28.4911 53.6861C28.4885 53.7727 28.4688 53.858 28.4332 53.937C28.3976 54.0161 28.3468 54.0873 28.2836 54.1467L22.9165 59.202C22.8533 59.2614 22.7791 59.3079 22.698 59.3386C22.6169 59.3694 22.5306 59.3839 22.4439 59.3812C22.3572 59.3786 22.2719 59.3589 22.1928 59.3234C22.1137 59.2878 22.0424 59.2369 21.983 59.1738L21.9825 59.1727ZM15.7106 27.173C15.0125 27.174 14.3268 27.3584 13.7224 27.7077C13.118 28.057 12.6161 28.5589 12.2669 29.1632C11.9177 29.7675 11.7335 30.4528 11.7327 31.1506C11.732 31.8484 11.9148 32.5342 12.2627 33.1392C12.6106 33.7442 13.1115 34.2472 13.7152 34.5977C14.3189 34.9483 15.0041 35.1341 15.7023 35.1367C16.4004 35.1392 17.087 34.9583 17.6932 34.612C18.2993 34.2658 18.8038 33.7665 19.1561 33.164C19.2144 33.0649 19.2975 32.9828 19.3973 32.9256C19.497 32.8685 19.61 32.8384 19.7249 32.8383H24.4834L25.0047 32.4257C25.1063 32.3454 25.2294 32.2968 25.3585 32.286C25.4876 32.2752 25.617 32.3026 25.7306 32.3649L26.4815 32.7769L27.0099 32.272C27.117 32.1701 27.2552 32.107 27.4023 32.093C27.5495 32.079 27.6972 32.1147 27.8216 32.1945L28.8253 32.8394H30.384L31.6522 31.5718L30.384 30.3037H20.1045C19.957 30.3034 19.8137 30.254 19.6974 30.1633C19.581 30.0725 19.4983 29.9456 19.4621 29.8027C19.1831 29.0323 18.6731 28.3668 18.0017 27.8968C17.3304 27.4267 16.5303 27.1752 15.7106 27.1763V27.173ZM23.2103 53.2729C23.1536 53.1864 23.0805 53.1119 22.995 53.0537C22.9096 52.9954 22.8135 52.9546 22.7123 52.9334C22.611 52.9123 22.5066 52.9113 22.405 52.9305C22.3034 52.9497 22.2065 52.9887 22.12 53.0453C22.0334 53.102 21.9589 53.1751 21.9006 53.2605C21.8423 53.3459 21.8014 53.4419 21.7803 53.5431C21.7592 53.6443 21.7582 53.7486 21.7774 53.8502C21.7966 53.9518 21.8356 54.0486 21.8923 54.1351L21.9127 54.1661C22.0295 54.3352 22.2077 54.452 22.4095 54.4916C22.6112 54.5312 22.8204 54.4904 22.9924 54.378C23.1645 54.2655 23.2858 54.0903 23.3304 53.8898C23.375 53.6892 23.3395 53.4792 23.2313 53.3044L23.2103 53.2729ZM30.4155 35.5719C30.9852 35.6208 31.5501 35.7149 32.1048 35.8534C34.1216 35.8163 36.1257 35.5249 38.0695 34.9863V30.4287C38.0695 30.2527 38.1395 30.0839 38.264 29.9594C38.3885 29.835 38.5574 29.7651 38.7335 29.7651H45.1132C45.2893 29.7651 45.4582 29.835 45.5827 29.9594C45.7072 30.0839 45.7772 30.2527 45.7772 30.4287V32.9173C45.9036 32.9595 46.0267 33.0107 46.1457 33.0705C46.5798 33.2885 46.9455 33.6217 47.2026 34.0337C47.4597 34.4457 47.5983 34.9205 47.6031 35.406C47.6225 36.3932 47.1395 37.5628 45.863 38.7126C45.8356 38.7372 45.8061 38.7594 45.775 38.779V40.8905C46.0797 40.9107 46.3194 40.9227 46.4943 40.9264C48.4678 40.4858 50.3769 39.795 52.1752 38.8708C52.5625 38.6855 52.9714 38.4919 53.429 38.2823V23.3919L41.92 14.5986L30.4111 23.3919V28.9775H30.6568C30.7437 28.9775 30.8299 28.9946 30.9102 29.0279C30.9905 29.0612 31.0635 29.1101 31.1249 29.1716L33.0554 31.1012C33.1791 31.2255 33.2485 31.3937 33.2485 31.569C33.2485 31.7444 33.1791 31.9126 33.0554 32.0369L31.1304 33.9609C31.0687 34.0239 30.995 34.0739 30.9136 34.1081C30.8323 34.1423 30.745 34.1599 30.6568 34.16H30.4111V35.5719H30.4155ZM19.1235 43.4665L26.3852 51.1675C29.6143 46.7936 31.8525 47.0198 36.2419 47.4622C38.4777 47.7245 40.729 47.8325 42.9796 47.7852C42.9918 47.7852 43.004 47.7852 43.0156 47.7852C43.8271 47.8084 45.2143 47.3709 47.1771 46.4728C49.8534 45.195 52.4617 43.7795 54.9915 42.2321L55.0126 42.22C56.885 41.1869 57.7565 40.2008 57.9413 39.4548C57.9912 39.2916 57.9851 39.1164 57.9241 38.957C57.8578 38.8256 57.7487 38.7207 57.6148 38.6595C57.1307 38.4129 56.3123 38.4455 55.3257 38.8934C55.3077 38.9016 55.2892 38.9088 55.2704 38.915C54.3215 39.3176 53.4998 39.7092 52.7423 40.0692C50.8341 41.0488 48.8068 41.7768 46.7112 42.2349C46.6521 42.2485 46.5914 42.2537 46.5308 42.2504C46.2324 42.2471 45.76 42.2196 45.1138 42.168H45.1099C45.0728 42.1681 45.0358 42.1652 44.9992 42.1591C44.575 42.1245 44.08 42.0799 43.5141 42.0253C42.2308 41.9014 40.6249 41.7325 38.6964 41.5187C38.6688 41.5173 38.6412 41.5141 38.614 41.5093L37.3602 41.3688C37.2736 41.3602 37.1897 41.3345 37.113 41.2934C37.0364 41.2523 36.9686 41.1965 36.9136 41.1292C36.8024 40.9933 36.7498 40.8188 36.7673 40.6441C36.7848 40.4694 36.8711 40.3088 37.0071 40.1977C37.1431 40.0866 37.3176 40.034 37.4924 40.0515C37.8671 40.0693 38.2426 40.0582 38.6156 40.0183C38.6451 40.0132 38.6749 40.0101 38.7047 40.0089C39.4713 39.9155 40.2273 39.7501 40.9628 39.5151C42.281 39.0945 43.5511 38.536 44.7519 37.8488C44.7738 37.8343 44.7965 37.8212 44.82 37.8095C44.8891 37.7702 44.9572 37.7304 45.0252 37.6906C45.946 36.8456 46.2979 36.0608 46.284 35.4342C46.2813 35.1793 46.2071 34.9302 46.0699 34.7153C45.941 34.5161 45.761 34.3551 45.5487 34.2491C45.3991 34.1738 45.2375 34.1253 45.0712 34.1058C45.0535 34.1058 45.0358 34.1025 45.0158 34.1003C44.7173 34.0778 44.4182 34.1367 44.1505 34.2706C44.1283 34.2811 44.1062 34.2905 44.0835 34.2988C43.5573 34.4869 43.1218 34.6511 42.6725 34.8203C41.5327 35.2501 40.311 35.7107 38.951 36.1095C38.927 36.1184 38.9024 36.1256 38.8774 36.131C36.6533 36.7894 34.3494 37.1399 32.0301 37.173C31.9742 37.1737 31.9184 37.1672 31.8641 37.1536C29.8209 36.5882 27.6369 36.8547 25.7898 37.8947C23.8095 38.9399 21.7025 40.7826 19.1235 43.4693V43.4665ZM14.8513 31.6349L14.8685 31.6083C14.9327 31.515 14.9777 31.4097 15.0006 31.2988C15.0236 31.1878 15.0241 31.0734 15.0022 30.9622C14.9803 30.8511 14.9364 30.7454 14.873 30.6515C14.8097 30.5575 14.7282 30.4772 14.6333 30.4152C14.5384 30.3532 14.4321 30.3107 14.3206 30.2904C14.2091 30.27 14.0946 30.2722 13.9839 30.2967C13.8733 30.3212 13.7686 30.3675 13.6761 30.433C13.5836 30.4985 13.5052 30.5819 13.4454 30.6781L13.4282 30.7041C13.3084 30.8927 13.2677 31.1209 13.315 31.3392C13.3622 31.5576 13.4935 31.7486 13.6806 31.8709C13.8676 31.9933 14.0953 32.0371 14.3144 31.9929C14.5335 31.9487 14.7264 31.8201 14.8513 31.6349Z" fill="white"/>
</g>
<defs>
<clipPath id="clip0_3636_117">
<rect width="70" height="70" fill="white"/>
</clipPath>
</defs>
</svg>
